<?xml version="1.0" encoding="utf-8"?>
<!-- Generator: Adobe Illustrator 23.0.0, SVG Export Plug-In . SVG Version: 6.00 Build 0)  -->
<svg version="1.1" id="Calque_1" xmlns="http://www.w3.org/2000/svg" xmlns:xlink="http://www.w3.org/1999/xlink" x="0px" y="0px"
	 viewBox="0 0 27 36" style="enable-background:new 0 0 27 36;" xml:space="preserve">
<style type="text/css">
	.st0{fill-rule:evenodd;clip-rule:evenodd;fill:#06909B;}
</style>
<path id="https:_www.flaticon.com_free-icon_money-bag_841299" class="st0" d="M16.3,27.9L15,26.5c1.1-1,1.6-2.4,1.6-3.9v-0.4
	c0-1.7-1.4-3.1-3.1-3.1s-3.1,1.4-3.1,3.1c0,0,0,0,0,0v0.4c0,1.5,0.6,2.9,1.6,3.9l-1.3,1.4c-0.4,0.4-0.4,1.1,0,1.5
	c0.4,0.4,1.1,0.4,1.5,0c0,0,0,0,0,0l1.3-1.4l1.3,1.4c0.4,0.4,1.1,0.4,1.5,0c0,0,0,0,0,0C16.7,28.9,16.7,28.3,16.3,27.9
	C16.3,27.9,16.3,27.9,16.3,27.9z M14.5,22.7c0.5,0.6,0.5,1.5-0.1,2c-0.6,0.5-1.5,0.5-2-0.1c-0.5-0.5-0.5-1.4,0-1.9v-0.4
	c0-0.6,0.5-1,1-1c0.6,0,1,0.5,1,1c0,0,0,0,0,0V22.7z M24.8,19.2l-5.4-7c1.4-1,1.8-3,0.8-4.4c-0.6-0.9-1.5-1.4-2.6-1.4
	c0.7-1.2,1-2.6,1-4V1c0-0.6-0.5-1-1-1.1c0,0,0,0,0,0H9.3c-0.6,0-1,0.5-1,1v0v1.2c0,1.4,0.4,2.8,1,4c-1.7,0-3.1,1.5-3.1,3.2
	c0,1,0.5,2,1.4,2.6l-5.4,7C0.8,21,0,23.2,0,25.5v0.4c0,3.4,1.7,6.5,4.4,8.4C6.1,35.4,8,36,10,36h7c2,0,3.9-0.6,5.5-1.7
	c2.8-1.9,4.5-5.1,4.4-8.4v-0.4C27,23.2,26.2,21,24.8,19.2L24.8,19.2z M10.4,2.1h6.2v0.2c0,1.5-0.5,2.9-1.5,4h-0.6V5.3
	c0-0.6-0.5-1-1-1c-0.6,0-1,0.5-1,1c0,0,0,0,0,0v1.1h-0.6c-1-1.1-1.5-2.6-1.5-4L10.4,2.1L10.4,2.1z M9.3,8.4h8.3c0.6,0,1,0.5,1,1.1
	c0,0.6-0.5,1-1,1H9.3c-0.7,0-1.2-0.4-1.2-1.1c0-0.7,0.6-1.2,1.2-1.2C9.3,8.3,9.3,8.3,9.3,8.4L9.3,8.4z M24.9,25.9
	c0,2.7-1.3,5.2-3.5,6.7c-1.3,0.9-2.8,1.3-4.4,1.3h-7c-1.6,0-3.1-0.5-4.4-1.3c-2.2-1.5-3.5-4-3.5-6.7v-0.4c0-1.8,0.6-3.6,1.7-5
	c0,0,0,0,0,0l6-7.8h7.3l6,7.8c0,0,0,0,0,0c1.1,1.4,1.7,3.2,1.7,5L24.9,25.9L24.9,25.9z"/>
</svg>
