<?xml version="1.0" encoding="utf-8"?>
<!-- Generator: Adobe Illustrator 23.0.0, SVG Export Plug-In . SVG Version: 6.00 Build 0)  -->
<svg version="1.1" id="Calque_1" xmlns="http://www.w3.org/2000/svg" xmlns:xlink="http://www.w3.org/1999/xlink" x="0px" y="0px"
	 viewBox="0 0 31 34" style="enable-background:new 0 0 31 34;" xml:space="preserve">
<style type="text/css">
	.st0{fill-rule:evenodd;clip-rule:evenodd;fill:#06909B;}
</style>
<path id="https:_www.flaticon.com_free-icon_cardiogram_841310" class="st0" d="M30.9,22.5l-3.8-7.3c0-0.4,0-0.8,0-1.2
	C27.4,6.5,21.5,0.3,14,0C6.5-0.2,0.2,5.6,0,13.1c0,0.3,0,0.6,0,0.9c0,3.6,1.4,7.1,3.9,9.8V33c0,0.5,0.4,1,1,1h13.6
	c0.3,0,0.5-0.1,0.7-0.3c0.2-0.2,0.3-0.4,0.3-0.7v-3.1h4.8c1.6,0,2.9-1.4,2.9-3v-3H30c0.3,0,0.7-0.2,0.8-0.5
	C31,23.2,31,22.8,30.9,22.5z M26.2,22c-0.5,0-1,0.5-1,1v4c0,0.5-0.4,1-1,1h-5.8c-0.3,0-0.5,0.1-0.7,0.3c-0.2,0.2-0.3,0.4-0.3,0.7V32
	H5.8v-8.7c0-0.3-0.1-0.5-0.3-0.7c-2.3-2.3-3.6-5.4-3.6-8.6C1.7,7.6,6.8,2.2,13.2,2s11.8,4.8,12,11.2c0,0.3,0,0.5,0,0.8
	c0,0.4,0,0.8-0.1,1.3c0,0.2,0,0.4,0.1,0.6l3.2,6.1H26.2L26.2,22z M22.3,14h-1.4c0.3-0.7,0.5-1.4,0.5-2.2c0-1.2-0.4-2.4-1.2-3.3
	c-0.8-0.9-1.9-1.4-3.1-1.4c-1.4,0-2.6,0.7-3.4,1.8c-0.7-1.1-2-1.8-3.4-1.8c-1.2,0-2.4,0.5-3.1,1.4C6.4,9.5,5.9,10.6,6,11.8
	c0,0.7,0.2,1.5,0.5,2.2H4.8c-0.5,0.1-1,0.5-0.9,1.1C4,15.6,4.4,16,4.8,16h2.9c1.7,1.7,3.4,3.3,5.2,4.8c0.4,0.3,0.9,0.3,1.3,0
	c1.8-1.5,3.6-3.1,5.2-4.8h2.8c0.6,0,1-0.4,1-1C23.3,14.5,22.8,14,22.3,14C22.3,14,22.3,14,22.3,14L22.3,14z M13.6,18.8
	c-1.3-1.1-2.4-2.1-3.3-3c0,0,0.1-0.1,0.1-0.1l1.3-1.3l1.3,1.3c0.4,0.4,1,0.4,1.3,0c0,0,0,0,0,0l1.3-1.3l1.3,1.3
	c0.1,0.1,0.1,0.1,0.2,0.1C16,16.7,14.9,17.7,13.6,18.8z M18.6,14h-0.8l-1.7-1.7c-0.4-0.4-1-0.4-1.3,0c0,0,0,0,0,0l-1.3,1.3l-1.3-1.3
	c-0.4-0.4-1-0.4-1.3,0c0,0,0,0,0,0L9.3,14H8.7c-0.5-0.6-0.8-1.4-0.8-2.2c-0.1-1.4,0.9-2.6,2.3-2.7c0,0,0.1,0,0.1,0
	c1.8,0,2.4,2.2,2.4,2.3c0.1,0.5,0.6,0.8,1.2,0.7c0.3-0.1,0.6-0.4,0.7-0.7c0,0,0.6-2.3,2.4-2.3c1.4,0.1,2.5,1.3,2.4,2.7
	c0,0,0,0.1,0,0.1C19.4,12.6,19.1,13.4,18.6,14L18.6,14z"/>
</svg>
