<?xml version="1.0" encoding="utf-8"?>
<!-- Generator: Adobe Illustrator 23.0.0, SVG Export Plug-In . SVG Version: 6.00 Build 0)  -->
<svg version="1.1" id="Calque_1" xmlns="http://www.w3.org/2000/svg" xmlns:xlink="http://www.w3.org/1999/xlink" x="0px" y="0px"
	 viewBox="0 0 38 36" style="enable-background:new 0 0 38 36;" xml:space="preserve">
<style type="text/css">
	.st0{fill-rule:evenodd;clip-rule:evenodd;fill:#06909B;}
</style>
<path id="https:_www.flaticon.com_free-icon_piggy-bank_841328" class="st0" d="M22,22.8l-1.4-1.5c1.1-1.1,1.8-2.6,1.8-4.1v-0.4
	c0-1.8-1.5-3.3-3.3-3.3c-1.8,0-3.3,1.5-3.3,3.3l0,0v0.4c0,1.6,0.6,3,1.8,4.1L16,22.8c-0.4,0.4-0.4,1.1,0,1.6c0,0,0,0,0,0
	c0.4,0.4,1.1,0.4,1.6,0c0,0,0,0,0,0L19,23l1.4,1.4c0.4,0.4,1.1,0.4,1.6,0c0,0,0,0,0,0C22.5,24,22.5,23.3,22,22.8
	C22.1,22.8,22.1,22.8,22,22.8z M20.1,17.3c0.6,0.6,0.5,1.6-0.1,2.1s-1.6,0.5-2.1-0.1c-0.5-0.6-0.5-1.4,0-2v-0.4
	c0-0.6,0.5-1.1,1.1-1.1s1.1,0.5,1.1,1.1c0,0,0,0,0,0V17.3z M7.9,15.8c0.6,0,1.1,0.5,1.1,1.1C9,17.5,8.5,18,7.9,18
	c-0.6,0-1.1-0.5-1.1-1.1c0,0,0,0,0,0C6.7,16.3,7.2,15.8,7.9,15.8C7.9,15.8,7.9,15.8,7.9,15.8z M38,7.9c0-0.6-0.5-1.1-1.1-1.1
	c-0.6,0-1.1,0.5-1.1,1.1c0,0,0,0,0,0c0,2-1.1,3.9-2.8,4.9c-0.3-0.4-0.6-0.7-0.9-1c-2.2-2.1-4.8-3.5-7.7-4.3c0.2-0.6,0.3-1.2,0.3-1.8
	c0-3.1-2.5-5.6-5.6-5.6c-3.1,0-5.6,2.5-5.6,5.6c0,0.6,0.1,1.2,0.3,1.8c-0.4,0.1-0.9,0.3-1.3,0.4l-1-1.1c-3-3.1-8-3.1-11,0
	c0,0,0,0,0,0C0.1,7,0,7.3,0,7.6c0,0.3,0.1,0.6,0.3,0.8L5,13c-0.7,0.8-1.2,1.8-1.7,2.8c-0.8,0-1.6,0.4-2.2,1c-0.7,0.6-1,1.5-1,2.4
	v4.5c0,0.9,0.4,1.8,1,2.4c0.6,0.6,1.5,1,2.4,1h1.1c1.2,1.6,2.7,3,4.4,4v3.9c0,0.6,0.5,1.1,1.1,1.1h4.5c0.6,0,1.1-0.5,1.1-1.1v-1.4
	c2.2,0.4,4.5,0.4,6.7,0v1.4c0,0.6,0.5,1.1,1.1,1.1h4.5c0.6,0,1.1-0.5,1.1-1.1V31c4.2-2.6,6.8-6.6,6.8-10.8c0-2-0.5-3.9-1.5-5.6
	C36.6,13.2,38,10.6,38,7.9z M19,2.3c1.9,0,3.4,1.5,3.4,3.3c0,1.9-1.5,3.4-3.3,3.4c-1.9,0-3.4-1.5-3.4-3.3c0,0,0,0,0,0
	C15.6,3.8,17.1,2.3,19,2.3z M27.4,29.4c-0.4,0.2-0.6,0.6-0.6,1v3.3h-2.2v-1.6c0-0.3-0.2-0.7-0.4-0.9c-0.3-0.2-0.6-0.3-0.9-0.2
	c-2.8,0.7-5.6,0.7-8.4,0c-0.3-0.1-0.7,0-0.9,0.2c-0.3,0.2-0.4,0.5-0.4,0.9v1.6h-2.2v-3.4c0-0.4-0.2-0.8-0.6-1
	c-1.8-1-3.4-2.4-4.6-4.1c-0.2-0.3-0.6-0.5-0.9-0.5H3.4c-0.6,0-1.1-0.5-1.2-1.1v-4.5c0-0.6,0.6-1.1,1.2-1.1H4c0.5,0,0.9-0.3,1-0.7
	c0.5-1.3,1.3-2.5,2.2-3.6c0.4-0.4,0.4-1.1,0-1.6L2.8,7.7C5,6.2,8,6.5,9.9,8.4l1.5,1.6c0.3,0.3,0.8,0.4,1.2,0.3
	c0.8-0.3,1.6-0.5,2.4-0.7c1,1.1,2.5,1.8,4.1,1.8c1.6,0,3-0.7,4.1-1.8c6.1,1.4,10.5,5.9,10.5,10.8C33.6,23.8,31.2,27.3,27.4,29.4z"/>
</svg>
