<?xml version="1.0" encoding="utf-8"?>
<!-- Generator: Adobe Illustrator 23.0.0, SVG Export Plug-In . SVG Version: 6.00 Build 0)  -->
<svg version="1.1" id="Calque_1" xmlns="http://www.w3.org/2000/svg" xmlns:xlink="http://www.w3.org/1999/xlink" x="0px" y="0px"
	 viewBox="0 0 31 36" style="enable-background:new 0 0 31 36;" xml:space="preserve">
<style type="text/css">
	.st0{fill-rule:evenodd;clip-rule:evenodd;fill:#06909B;}
</style>
<path id="https:_www.flaticon.com_free-icon_charity_841338" class="st0" d="M21.6,10.9c0.5-1.1,0.8-2.2,0.8-3.4
	c0.1-4-3-7.3-6.9-7.4c-3.8-0.1-7,3-7.1,7c0,0.1,0,0.2,0,0.3c0,1.2,0.3,2.4,0.8,3.4c-5.3,1.3-8.8,6.1-8.8,11.4v1.5
	c0,3.4,1.3,6.6,3.6,8.8C5.3,34,7.5,34.1,9,32.7c0.4-0.4,0.8-1,0.9-1.5c1.4,1.3,3.1,2.8,5,4.4c0.4,0.3,1,0.3,1.4,0
	c1.8-1.6,3.6-3.2,5-4.4c0.6,1.9,2.5,3,4.5,2.4c0.6-0.2,1.1-0.5,1.5-0.9c2.3-2.4,3.6-5.6,3.6-8.8v-1.5C30.4,16.8,26.7,12.1,21.6,10.9
	z M15.3,2.3c2.8-0.1,5.2,2.3,5.3,5.2s-2.2,5.3-5.1,5.4s-5.2-2.3-5.3-5.2V7.6C10.3,4.7,12.5,2.3,15.3,2.3z M21.8,27.5L21.8,27.5
	L21.8,27.5c-0.4,0.4-0.8,0.9-1.3,1.3c-1.4,1.3-3.1,2.8-5.1,4.6c-4.8-4.3-7.9-6.7-7.9-9.6c0-2.3,1.5-4.1,3.5-4.1
	c1.1,0,2.1,0.6,2.7,1.6c0.4,0.5,0.7,1.1,0.9,1.8c0.1,0.5,0.5,0.8,1,0.8c0.5,0,0.9-0.3,1-0.8c0.2-0.6,0.5-1.2,0.9-1.8
	c0.6-1,1.6-1.5,2.7-1.6c2,0.1,3.6,1.9,3.5,3.9v0.1C23.3,25.1,22.8,26.5,21.8,27.5z M28.6,23.8c0,2.8-1.1,5.5-2.9,7.5
	c-0.3,0.3-0.7,0.5-1.2,0.5c-0.9,0-1.6-0.8-1.6-1.7c0-0.4,0.2-0.7,0.4-1c1.4-1.4,2.1-3.3,2.2-5.3c0-3.4-2.2-6.2-5.5-6.2
	c-1.8,0-3.3,1-4.3,2.5c-0.1,0.1-0.1,0.2-0.2,0.2c-0.1-0.1-0.1-0.2-0.2-0.2c-1-1.5-2.6-2.5-4.3-2.5c-3.1,0-5.5,2.8-5.5,6.2
	c0.1,2,0.9,3.8,2.1,5.3c0.6,0.7,0.6,1.7-0.1,2.4c-0.3,0.3-0.7,0.4-1.1,0.4c-0.4,0-0.8-0.2-1.2-0.5c-1.9-2-2.9-4.7-2.8-7.5v-1.5
	c0-4.9,3.4-8.8,8-9.4c2.6,2.8,6.9,2.8,9.6,0c1.1,0.2,3.6,0.8,5.8,3.2c1.1,1.2,1.8,2.5,2,3.4c0.3,0.6,0.6,1.5,0.7,2.6
	C28.7,22.7,28.7,23.3,28.6,23.8z"/>
</svg>
